#!OML:ASF X:\für Bonn\!DataBase\2005_08_10_Bjorn_Final\c3d\bjorn.ASF
:FULLY-SPECIFIED
:DEGREES
263
root 1.85763 18.8716 3.23347 -181.455 -1.07191 -197.093
lowerback 9.52954 0.498826 11.0365
upperback 14.9418 -1.66597 -2.10087
thorax 10.9841 -0.5679 -8.71371
lowerneck -1.47736 12.8045 1.89204
upperneck 4.20166 17.8674 -22.6688
head 3.80721 7.96177 -6.32761
rclavicle -5.725e-014 -5.88403e-014
rhumerus -25.7746 -8.78956 -85.2893
rradius 48.097
rwrist -5.15653
rhand -10.5337 14.3556
rfingers 7.12502
rthumb 15.4696 -15.0455
lclavicle -5.725e-014 -5.88403e-014
lhumerus -26.4294 -3.64604 76.0653
lradius 47.5552
lwrist -34.8376
lhand -41.325 -29.3382
lfingers 7.12502
lthumb -14.2449 0.153233
rfemur -18.4892 1.07112 3.29975
rtibia 43.478
rfoot -22.9917 5.99534
rtoes 1.63789
lfemur -23.3233 -0.507908 -27.3468
ltibia 52.5276
lfoot -16.9792 -3.7708
ltoes -27.3093
264
root 1.8754 18.8791 3.24161 -181.273 -0.815904 -196.675
lowerback 9.53332 0.668292 10.9613
upperback 14.9159 -1.42686 -2.09711
thorax 11.0033 -0.453196 -8.66767
lowerneck -1.39149 12.788 2.03175
upperneck 4.14516 17.8346 -22.7308
head 3.79007 7.96102 -6.37627
rclavicle -1.59028e-015 3.33958e-014
rhumerus -25.3471 -8.24614 -85.5846
rradius 49.0078
rwrist -5.12809
rhand -10.6707 14.438
rfingers 7.12502
rthumb 15.3377 -14.9732
lclavicle -1.59028e-015 3.33958e-014
lhumerus -26.9707 -4.15007 76.6541
lradius 47.1323
lwrist -34.4448
lhand -41.136 -29.4394
lfingers 7.12502
lthumb -14.0627 0.0648503
rfemur -18.7336 0.829063 3.79099
rtibia 43.3428
rfoot -22.847 6.37376
rtoes 1.55676
lfemur -23.6853 -0.263661 -27.7945
ltibia 52.2644
lfoot -16.9283 -4.29623
ltoes -27.3141
265
root 1.8937 18.8856 3.24772 -181.111 -0.540338 -196.254
lowerback 9.54875 0.851258 10.8849
upperback 14.9005 -1.17263 -2.09897
thorax 11.0321 -0.331293 -8.62759
lowerneck -1.39928 12.7718 2.19565
upperneck 4.18034 17.8259 -22.7576
head 3.81831 7.96081 -6.40742
rclavicle 6.36111e-015 1.59028e-015
rhumerus -24.9893 -7.80791 -85.8365
rradius 49.9951
rwrist -5.3547
rhand -10.7645 14.6398
rfingers 7.12502
rthumb 15.2473 -14.7783
lclavicle 6.36111e-015 1.59028e-015
lhumerus -27.4859 -4.64002 77.2289
lradius 46.7185
lwrist -34.0921
lhand -41.0004 -29.5477
lfingers 7.12502
lthumb -13.932 -0.0344415
rfemur -18.9619 0.58112 4.27968
rtibia 43.2177
rfoot -22.6909 6.82947
rtoes 1.43546
lfemur -23.9949 -0.0529374 -28.1881
ltibia 51.9661
lfoot -16.7793 -4.91057
ltoes -26.488
266
root 1.91356 18.8898 3.25322 -180.939 -0.264454 -195.812
lowerback 9.56183 1.0395 10.7958
upperback 14.8775 -0.910098 -2.08619
thorax 11.0533 -0.207753 -8.56272
lowerneck -1.4466 12.7622 2.38392
upperneck 4.2742 17.8406 -22.7877
head 3.8766 7.96472 -6.43741
rclavicle 3.65764e-014 3.02153e-014
rhumerus -24.6941 -7.50518 -86.0185
rradius 50.9728
rwrist -5.76043
rhand -10.7207 14.9999
rfingers 7.12502
rthumb 15.2895 -14.4149
lclavicle 3.65764e-014 3.02153e-014
lhumerus -27.9696 -5.09788 77.8075
lradius 46.2746
lwrist -33.7315
lhand -40.9795 -29.7165
lfingers 7.12502
lthumb -13.9118 -0.201904
rfemur -19.2023 0.299181 4.79937
rtibia 43.1079
rfoot -22.5543 7.33977
rtoes 1.25652
lfemur -24.2968 0.0902502 -28.4967
ltibia 51.6412
lfoot -16.5304 -5.54569
ltoes -25.2362
267
root 1.93316 18.8936 3.25797 -180.777 -0.00261672 -195.378
lowerback 9.58098 -2.36976 10.1059
upperback 14.7157 0.300844 -2.79008
thorax 10.6783 2.66104 -8.51917
lowerneck -1.50438 12.7555 2.56434
upperneck 4.34067 17.8549 -22.8144
head 3.92752 7.97047 -6.46491
rclavicle -2.38542e-014 7.95139e-015
rhumerus -24.4205 -7.31732 -86.1663
rradius 51.8371
rwrist -6.15123
rhand -10.7068 15.45
rfingers 7.12502
rthumb 15.3029 -13.9638
lclavicle -2.38542e-014 7.95139e-015
lhumerus -28.4101 -5.48042 78.3373
lradius 45.9139
lwrist -33.7819
lhand -41.0227 -29.5473
lfingers 7.12502
lthumb -13.9535 -0.0354848
rfemur -19.4294 0.0329106 5.30462
rtibia 43.0119
rfoot -22.4015 7.86654
rtoes 1.05485
lfemur -24.558 0.230028 -28.7666
ltibia 51.29
lfoot -16.1714 -6.24272
ltoes -23.3268
268
root 1.95223 18.8944 3.26231 -180.629 0.241864 -194.93
lowerback 9.62015 -2.18664 10.0411
upperback 14.6961 0.546151 -2.77967
thorax 10.69 2.77158 -8.47344
lowerneck -1.53848 12.7431 2.71973
upperneck 4.38397 17.8536 -22.8147
head 3.96031 7.97296 -6.48416
rclavicle 6.36111e-015 3.02153e-014
rhumerus -24.2225 -7.21593 -86.288
rradius 52.6679
rwrist -6.52909
rhand -10.6775 15.8956
rfingers 7.12502
rthumb 15.3312 -13.516
lclavicle 6.36111e-015 3.02153e-014
lhumerus -28.852 -5.80034 78.8408
lradius 45.6424
lwrist -34.2657
lhand -41.0859 -29.2181
lfingers 7.12502
lthumb -14.0144 0.289433
rfemur -19.6365 -0.283061 5.81712
rtibia 42.93
rfoot -22.2481 8.46983
rtoes 0.866992
lfemur -24.7862 0.400276 -28.9676
ltibia 50.9272
lfoot -15.6664 -7.04812
ltoes -20.6352
269
root 1.97151 18.8945 3.2657 -180.492 0.463418 -194.46
lowerback 9.66615 -2.01092 10.0133
upperback 14.6846 0.788287 -2.77259
thorax 10.7084 2.88766 -8.45206
lowerneck -1.57569 12.7268 2.88005
upperneck 4.39405 17.8416 -22.816
head 3.98287 7.97333 -6.50566
rclavicle 7.95139e-015 1.27222e-014
rhumerus -24.0627 -7.13688 -86.4019
rradius 53.4833
rwrist -6.91736
rhand -10.642 15.9754
rfingers 7.12502
rthumb 15.3653 -13.4337
lclavicle 7.95139e-015 1.27222e-014
lhumerus -29.2272 -6.2076 79.3196
lradius 45.3496
lwrist -34.6826
lhand -41.1684 -29.1238
lfingers 7.12502
lthumb -14.0939 0.378205
rfemur -19.8249 -0.60643 6.35319
rtibia 42.8522
rfoot -22.0888 9.06858
rtoes 0.622464
lfemur -24.9879 0.582037 -29.104
ltibia 50.5566
lfoot -15.1 -7.8064
ltoes -17.9192
270
root 1.99126 18.8941 3.26821 -180.363 0.679481 -193.976
lowerback 9.74014 -1.8401 9.96757
upperback 14.6595 1.02017 -2.73492
thorax 10.6886 2.98966 -8.3866
lowerneck -1.52125 12.7034 2.96503
upperneck 4.30905 17.7938 -22.8115
head 3.94873 7.96761 -6.52571
rclavicle 5.88403e-014 4.29375e-014
rhumerus -23.9779 -7.03846 -86.4551
rradius 54.2551
rwrist -7.23915
rhand -10.6803 16.1191
rfingers 7.12502
rthumb 15.3285 -13.2928
lclavicle 5.88403e-014 4.29375e-014
lhumerus -29.6414 -6.51781 79.8379
lradius 45.11
lwrist -35.1347
lhand -41.2346 -29.012
lfingers 7.12502
lthumb -14.1577 0.485613
rfemur -19.9898 -0.937299 6.90429
rtibia 42.775
rfoot -21.9073 9.70088
rtoes 0.351041
lfemur -25.1649 0.857272 -29.1944
ltibia 50.1879
lfoot -14.5377 -8.48821
ltoes -15.5418
271
root 2.01144 18.8936 3.26987 -180.265 0.889168 -193.466
lowerback 9.84739 -1.67667 9.97346
upperback 14.6398 1.25416 -2.71639
thorax 10.6603 3.10224 -8.37296
lowerneck -1.40467 12.668 3.09133
upperneck 4.12537 17.7107 -22.8175
head 3.87435 7.95876 -6.56393
rclavicle -1.74931e-014 -2.70347e-014
rhumerus -23.9313 -7.03409 -86.5288
rradius 54.9873
rwrist -7.53618
rhand -10.651 16.1356
rfingers 7.12502
rthumb 15.3567 -13.2741
lclavicle -1.74931e-014 -2.70347e-014
lhumerus -30.0066 -6.82303 80.3006
lradius 44.8471
lwrist -35.5003
lhand -41.2601 -28.7367
lfingers 7.12502
lthumb -14.1823 0.759171
rfemur -20.1132 -1.2712 7.48858
rtibia 42.6906
rfoot -21.726 10.3351
rtoes 0.132978
lfemur -25.2974 1.1456 -29.2227
ltibia 49.8289
lfoot -14.0424 -8.98801
ltoes -13.7617
272
root 2.03153 18.8923 3.27094 -180.16 1.07941 -192.915
lowerback 9.94299 -1.51542 10.0136
upperback 14.6229 1.48407 -2.67222
thorax 10.6419 3.2153 -8.34965
lowerneck -1.31764 12.6297 3.15343
upperneck 3.95268 17.6246 -22.7614
head 3.79591 7.9467 -6.57169
rclavicle 0 -6.99722e-014
rhumerus -23.9204 -7.08374 -86.5514
rradius 55.7189
rwrist -7.789
rhand -10.6906 15.7728
rfingers 7.12502
rthumb 15.3186 -13.6399
lclavicle 0 -6.99722e-014
lhumerus -30.3589 -7.10335 80.7809
lradius 44.6317
lwrist -35.7646
lhand -41.2392 -28.2994
lfingers 7.12502
lthumb -14.1622 1.19784
rfemur -20.2301 -1.68829 8.11276
rtibia 42.6016
rfoot -21.5149 11.0387
rtoes -0.222531
lfemur -25.4108 1.37917 -29.1736
ltibia 49.482
lfoot -13.6527 -9.31513
ltoes -12.4069
273
root 2.05233 18.8906 3.27008 -180.015 1.2783 -192.317
lowerback 9.97947 -1.33981 10.0976
upperback 14.5979 1.72114 -2.6132
thorax 10.6522 3.33369 -8.33362
lowerneck -1.22034 12.5914 3.15936
upperneck 3.75621 17.5316 -22.6382
head 3.69597 7.93604 -6.55217
rclavicle -7.95139e-015 6.83819e-014
rhumerus -23.9644 -7.20196 -86.5515
rradius 56.4481
rwrist -8.0121
rhand -10.8971 15.356
rfingers 7.12502
rthumb 15.1196 -14.0717
lclavicle -7.95139e-015 6.83819e-014
lhumerus -30.692 -7.33438 81.2422
lradius 44.4213
lwrist -35.91
lhand -41.2033 -28.0378
lfingers 7.12502
lthumb -14.1275 1.46193
rfemur -20.3823 -2.20015 8.78692
rtibia 42.5096
rfoot -21.2583 11.855
rtoes -0.4388
lfemur -25.5556 1.56214 -29.0377
ltibia 49.155
lfoot -13.4536 -9.23561
ltoes -12.0984
274
root 2.07288 18.8892 3.26892 -179.846 1.45281 -191.642
lowerback 10.012 -1.17635 10.2494
upperback 14.5554 1.93514 -2.51868
thorax 10.6413 3.44027 -8.31679
lowerneck -1.10433 12.5613 3.12111
upperneck 3.5492 17.4459 -22.4994
head 3.58543 7.92975 -6.52237
rclavicle 1.11319e-014 5.40694e-014
rhumerus -24.0859 -7.31804 -86.4947
rradius 57.1949
rwrist -8.12706
rhand -11.2148 14.8115
rfingers 7.12502
rthumb 14.8135 -14.6391
lclavicle 1.11319e-014 5.40694e-014
lhumerus -31.0285 -7.55739 81.7363
lradius 44.2518
lwrist -35.8703
lhand -41.4289 -27.9936
lfingers 7.12502
lthumb -14.345 1.49082
rfemur -20.5533 -2.73385 9.54936
rtibia 42.4237
rfoot -20.975 12.686
rtoes -0.549126
lfemur -25.6979 1.74698 -28.7782
ltibia 48.8414
lfoot -13.402 -8.84978
ltoes -12.5065
275
root 2.09356 18.8863 3.26424 -179.67 1.6405 -190.968
lowerback 10.0036 -1.00329 10.4005
upperback 14.511 2.15533 -2.43173
thorax 10.6545 3.55035 -8.30655
lowerneck -1.00662 12.54 3.09063
upperneck 3.36838 17.3787 -22.3387
head 3.48714 7.93039 -6.48372
rclavicle -1.98785e-014 5.40694e-014
rhumerus -24.3149 -7.51808 -86.4164
rradius 57.9907
rwrist -8.14926
rhand -11.4502 14.347
rfingers 7.12502
rthumb 14.5867 -15.1201
lclavicle -1.98785e-014 5.40694e-014
lhumerus -31.399 -7.81311 82.2328
lradius 44.1553
lwrist -35.5798
lhand -41.9311 -28.1346
lfingers 7.12502
lthumb -14.8288 1.31477
rfemur -20.7288 -3.24796 10.3172
rtibia 42.3549
rfoot -20.7418 13.4924
rtoes -0.994015
lfemur -25.7954 1.89258 -28.4824
ltibia 48.5358
lfoot -13.4797 -8.27388
ltoes -13.1805
